<?xml version="1.0" encoding="UTF-8" standalone="no"?>
<svg
   id="artwork"
   viewBox="0 0 605 210"
   version="1.1"
   sodipodi:docname="onpremises.svg"
   inkscape:version="1.2.2 (b0a8486541, 2022-12-01)"
   width="605"
   height="210"
   xmlns:inkscape="http://www.inkscape.org/namespaces/inkscape"
   xmlns:sodipodi="http://sodipodi.sourceforge.net/DTD/sodipodi-0.dtd"
   xmlns="http://www.w3.org/2000/svg"
   xmlns:svg="http://www.w3.org/2000/svg">
  <sodipodi:namedview
     id="namedview177"
     pagecolor="#ffffff"
     bordercolor="#666666"
     borderopacity="1.0"
     inkscape:showpageshadow="2"
     inkscape:pageopacity="0.0"
     inkscape:pagecheckerboard="0"
     inkscape:deskcolor="#d1d1d1"
     showgrid="false"
     inkscape:zoom="1.7118421"
     inkscape:cx="353.42045"
     inkscape:cy="155.97233"
     inkscape:window-width="1920"
     inkscape:window-height="1011"
     inkscape:window-x="0"
     inkscape:window-y="0"
     inkscape:window-maximized="1"
     inkscape:current-layer="artwork" />
  <defs
     id="defs4">
    <style
       id="style2">
      .cls-1, .cls-2, .cls-3 {
        fill: none;
      }
      .cls-2 {
        stroke: #06c;
      }
      .cls-2, .cls-4 {
        stroke-linecap: round;
        stroke-linejoin: round;
      }
      .cls-5 {
        fill: #06c;
      }
      .cls-6, .cls-4 {
        fill: #fff;
      }
      .cls-7 {
        fill: #e8e8e8;
      }
      .cls-8, .cls-9 {
        font-family: RedHatTextRoman-Medium, 'Red Hat Text';
        font-variation-settings: 'wght' 500;
        font-weight: 500;
      }
      .cls-8, .cls-10, .cls-11 {
        fill: #151515;
        font-size: 12px;
      }
      .cls-12 {
        fill: #ececec;
        font-size: 10px;
      }
      .cls-12, .cls-13 {
        font-family: RedHatTextRoman-Regular, 'Red Hat Text';
        font-variation-settings: 'wght' 400;
      }
      .cls-3 {
        stroke: #adadad;
        stroke-miterlimit: 10;
      }
      .cls-4 {
        stroke: #5b5b5b;
        stroke-width: 1.5px;
      }
      .cls-11 {
        font-family: RedHatTextRoman-Bold, 'Red Hat Text';
        font-variation-settings: 'wght' 700;
        font-weight: 700;
      }
    </style>
  </defs>
  <rect
     class="cls-7"
     x="-185"
     y="-200"
     width="175"
     height="190"
     transform="scale(-1)"
     id="rect452"
     style="stroke-width:1.28817" />
  <g
     id="g450"
     transform="matrix(0.96666667,0,0,1,10.5,56.75)">
    <g
       id="g138">
      <rect
         class="cls-6"
         x="15.5"
         y="60"
         width="149"
         height="49"
         id="rect134" />
      <path
         class="cls-5"
         d="m 164,60.5 v 48 H 16 v -48 h 148 m 1,-1 H 15 v 50 h 150 z"
         id="path136" />
    </g>
    <text
       class="cls-8"
       id="text144"
       x="53.315987"
       y="87.697998">composer-cli</text>
  </g>
  <rect
     class="cls-7"
     x="-595"
     y="-162.25"
     width="185"
     height="114.5"
     transform="scale(-1)"
     id="rect14" />
  <rect
     class="cls-7"
     x="-385"
     y="-162.25"
     width="175"
     height="114.5"
     transform="scale(-1)"
     id="rect22" />
  <g
     id="g419"
     transform="translate(-165,20.5)">
    <g
       id="g32">
      <rect
         class="cls-6"
         x="390.5"
         y="60"
         width="144"
         height="49"
         id="rect28" />
      <path
         class="cls-5"
         d="m 534,60.5 v 48 H 391 v -48 h 143 m 1,-1 H 390 v 50 h 145 z"
         id="path30" />
    </g>
    <text
       class="cls-8"
       id="text38"
       x="396.94199"
       y="74.697998"><tspan
         x="411.39197"
         y="87.697998"
         id="tspan36">osbuild-composer</tspan></text>
  </g>
  <g
     id="g128"
     transform="translate(-165,20.5)">
    <line
       class="cls-2"
       x1="590"
       y1="84.5"
       x2="544.67999"
       y2="84.5"
       id="line124" />
    <polygon
       class="cls-5"
       points="546.14,79.51 537.5,84.5 546.14,89.49 "
       id="polygon126" />
  </g>
  <polyline
     class="cls-3"
     points="595 114.5 740 114.5 740 64.5"
     id="polyline148"
     transform="translate(-165,20.5)" />
  <polyline
     class="cls-3"
     points="600 119.5 745 119.5 745 69.5"
     id="polyline150"
     transform="translate(-165,20.5)" />
  <g
     id="g156"
     transform="translate(-165,20.5)">
    <rect
       class="cls-6"
       x="590.5"
       y="60"
       width="144"
       height="49"
       id="rect152" />
    <path
       class="cls-5"
       d="m 734,60.5 v 48 H 591 v -48 h 143 m 1,-1 H 590 v 50 h 145 z"
       id="path154" />
  </g>
  <text
     class="cls-8"
     id="text160"
     x="473.54202"
     y="108.5"><tspan
       x="473.54202"
       y="108.5"
       id="tspan158">worker/s</tspan></text>
  <g
     id="g166"
     transform="translate(-165,-17.25)">
    <rect
       class="cls-6"
       x="190.5"
       y="60"
       width="144"
       height="49"
       id="rect162" />
    <path
       class="cls-5"
       d="m 334,60.5 v 48 H 191 v -48 h 143 m 1,-1 H 190 v 50 h 145 z"
       id="path164" />
  </g>
  <text
     class="cls-8"
     id="text172"
     x="46.043976"
     y="70.447998">cockpit-composer</text>
  <g
     id="g1474"
     transform="translate(0,-17.25)">
    <polygon
       class="cls-5"
       points="378.86,79.51 387.5,84.5 378.86,89.49 "
       id="polygon706"
       transform="rotate(-31.536727,378.99421,397.49701)"
       style="fill:#0066cc" />
    <path
       style="fill:none;stroke:#0066cc;stroke-width:1px;stroke-linecap:butt;stroke-linejoin:miter;stroke-opacity:1"
       d="m 169.85711,158.77108 45.70814,-28.22652"
       id="path793" />
  </g>
  <g
     id="g1480"
     transform="matrix(1,0,0,-1,0,226.22566)">
    <polygon
       class="cls-5"
       points="387.5,84.5 378.86,89.49 378.86,79.51 "
       id="polygon1476"
       transform="rotate(-31.536727,378.99421,397.49701)"
       style="fill:#0066cc" />
    <path
       style="fill:none;stroke:#0066cc;stroke-width:1px;stroke-linecap:butt;stroke-linejoin:miter;stroke-opacity:1"
       d="m 169.85711,158.77108 45.70814,-28.22652"
       id="path1478" />
  </g>
</svg>
